<?xml version="1.0" encoding="UTF-8" standalone="no"?>
<svg width="16px" height="16px" viewBox="0 0 16 16" version="1.1" xmlns="http://www.w3.org/2000/svg" xmlns:xlink="http://www.w3.org/1999/xlink">
    <!-- Generator: Sketch 39.1 (31720) - http://www.bohemiancoding.com/sketch -->
    <title>favicon</title>
    <desc>Created with Sketch.</desc>
    <defs></defs>
    <g id="Page-1" stroke="none" stroke-width="1" fill="none" fill-rule="evenodd">
        <g id="Group" fill="#000000">
            <path d="M8.02511574,0.0568863273 L5.86215278,2.25299834 L6.67037037,1.91659453 L6.86792331,2.12031907 L7.08086966,2.25299834 L7.44611443,3.53509805 C7.44611443,3.53509805 7.71064952,2.58163127 7.84421296,2.15833213 C7.85308779,2.13020537 7.96279772,2.25299834 7.96279772,2.25299834 L8.30046296,1.33132328 L9.4556878,2.83245609 L9.5488756,2.19966021 L9.7202379,2.25299834 L9.95522506,1.98689029 L8.02511574,0.0568863273 Z" id="peak"></path>
            <polygon id="base" points="5.52681859 2.57860809 6.44434517 2.39980343 6.59920628 2.8191631 6.8296791 2.84916375 7.4177248 4.04529254 7.96577394 2.8191631 8.11026766 2.8191631 8.41385563 2.29599214 9.50697764 3.42257464 9.69176587 2.6658782 9.88194419 2.73337551 10.0532242 2.11328958 14.9782577 7.05413786 1.10796958 7.05413786"></polygon>
            <polygon id="v" points="0.11073082 8.03098348 4.868717 8.03098348 8.02017235 11.2096381 11.165625 8.03098348 15.9201552 8.03098348 8.02017273 15.9924375"></polygon>
        </g>
    </g>
</svg>