<?xml version="1.0" encoding="utf-8"?>
<!-- Generator: Adobe Illustrator 16.0.4, SVG Export Plug-In . SVG Version: 6.00 Build 0)  -->
<!DOCTYPE svg PUBLIC "-//W3C//DTD SVG 1.1//EN" "http://www.w3.org/Graphics/SVG/1.1/DTD/svg11.dtd">
<svg version="1.1" id="Layer_1" xmlns="http://www.w3.org/2000/svg" xmlns:xlink="http://www.w3.org/1999/xlink" x="0px" y="0px"
	 width="60px" height="60px" viewBox="0 0 60 60" enable-background="new 0 0 60 60" xml:space="preserve">
<rect id="Bkg" fill="none" width="60" height="60"/>
<g id="Logo_Group">
	<g id="Vertex_v01_2_">
		<g>
			<g>
				<g>
					<polygon fill="#FFFFFF" points="23.7,36.3 23.7,23.7 14.2,14.2 14.2,45.8 45.8,45.8 36.3,36.3 					"/>
				</g>
			</g>
		</g>
	</g>
	<polygon id="Mountain_Peak" fill="#FFFFFF" points="39.4,15.9 39.6,16.6 37.8,19.9 41.3,18 41.3,18.4 43.8,17.3 43.2,22.6 
		44.6,21.5 44.8,22 45.8,21.8 45.8,14.2 37.1,14.2 39.4,15.2 	"/>
	<polygon id="Mountain_Base" fill="#FFFFFF" points="45.8,22.3 44.2,23.2 44,22.7 42.1,23.8 42.2,19.4 40.5,19.8 40.2,19.5 
		36.7,20.9 37.9,17.3 37.5,16.8 38,15.7 35.8,14.2 18.1,14.2 45.8,42 	"/>
</g>
</svg>
