<?xml version="1.0" encoding="utf-8"?>
<!-- Generator: Adobe Illustrator 16.0.4, SVG Export Plug-In . SVG Version: 6.00 Build 0)  -->
<!DOCTYPE svg PUBLIC "-//W3C//DTD SVG 1.1//EN" "http://www.w3.org/Graphics/SVG/1.1/DTD/svg11.dtd">
<svg version="1.1" id="Layer_1" xmlns="http://www.w3.org/2000/svg" xmlns:xlink="http://www.w3.org/1999/xlink" x="0px" y="0px"
	 width="253.355px" height="145.15px" viewBox="269.578 233.692 253.355 145.15"
	 enable-background="new 269.578 233.692 253.355 145.15" xml:space="preserve">
<g>
	<polygon fill="#FFFFFF" points="450.358,233.692 342.152,233.692 269.578,306.266 342.154,378.843 450.356,378.843 
		522.933,306.266 	"/>
</g>
<g id="Logo_Group">
	<g id="Vertex_v01_2_">
		<g>
			<g>
				<g>
					<polygon fill="#0060A5" points="396.257,332.842 369.707,306.293 329.533,306.293 396.257,373.016 462.978,306.293 
						422.802,306.293 					"/>
				</g>
			</g>
		</g>
	</g>
	<polygon id="Mountain_Peak" fill="#0060A5" points="386.364,256.71 388.213,257.868 391.349,268.531 394.812,257.017 
		395.751,257.852 398.599,250.286 408.363,262.835 409.105,257.48 410.513,258.05 412.429,255.629 396.317,239.518 377.968,257.865 
		384.813,255.1 	"/>
	<polygon id="Mountain_Base" fill="#39B54A" points="413.412,256.614 411.888,261.894 410.312,261.34 408.713,267.675 
		399.527,258.18 396.998,262.613 395.751,262.567 391.149,272.847 386.197,262.814 384.217,262.566 382.953,259.116 
		375.219,260.615 337.732,298.1 454.9,298.1 	"/>
</g>
</svg>
