<?xml version="1.0" encoding="UTF-8" standalone="no"?><!DOCTYPE svg PUBLIC "-//W3C//DTD SVG 1.1//EN" "http://www.w3.org/Graphics/SVG/1.1/DTD/svg11.dtd"><svg width="100%" height="100%" viewBox="0 0 18 19" version="1.1" xmlns="http://www.w3.org/2000/svg" xmlns:xlink="http://www.w3.org/1999/xlink" xml:space="preserve" xmlns:serif="http://www.serif.com/" style="fill-rule:evenodd;clip-rule:evenodd;stroke-linejoin:round;stroke-miterlimit:2;"><path d="M9,0l5.7,5.7l-1.41,1.42l-3.29,-3.3l0,9.59l-2,0l0,-9.59l-3.3,3.3l-1.41,-1.42l5.71,-5.7Zm9,12.41l-0.02,3.51c0,1.38 -1.12,2.49 -2.5,2.49l-12.98,0c-1.39,0 -2.5,-1.12 -2.5,-2.5l0,-3.5l2,0l0,3.5c0,0.28 0.22,0.5 0.5,0.5l12.98,0c0.28,0 0.5,-0.22 0.5,-0.5l0.02,-3.5l2,0Z" style="fill:#1d9bf0;"/></svg>