<?xml version="1.0" encoding="UTF-8" standalone="no"?><!DOCTYPE svg PUBLIC "-//W3C//DTD SVG 1.1//EN" "http://www.w3.org/Graphics/SVG/1.1/DTD/svg11.dtd"><svg width="100%" height="100%" viewBox="0 0 21 21" version="1.1" xmlns="http://www.w3.org/2000/svg" xmlns:xlink="http://www.w3.org/1999/xlink" xml:space="preserve" xmlns:serif="http://www.serif.com/" style="fill-rule:evenodd;clip-rule:evenodd;stroke-linejoin:round;stroke-miterlimit:2;"><g><path d="M20.5,10.25c0,-1.43 -0.88,-2.67 -2.19,-3.34c0.46,-1.39 0.2,-2.9 -0.81,-3.91c-1.01,-1.01 -2.52,-1.27 -3.91,-0.81c-0.66,-1.31 -1.91,-2.19 -3.34,-2.19c-1.43,0 -2.67,0.88 -3.33,2.19c-1.4,-0.46 -2.91,-0.2 -3.92,0.81c-1.01,1.01 -1.26,2.52 -0.8,3.91c-1.31,0.67 -2.2,1.91 -2.2,3.34c0,1.43 0.89,2.67 2.2,3.34c-0.46,1.39 -0.21,2.9 0.8,3.91c1.01,1.01 2.52,1.26 3.91,0.81c0.67,1.31 1.91,2.19 3.34,2.19c1.43,0 2.68,-0.88 3.34,-2.19c1.39,0.45 2.9,0.2 3.91,-0.81c1.01,-1.01 1.27,-2.52 0.81,-3.91c1.31,-0.67 2.19,-1.91 2.19,-3.34Zm-11.71,4.2l-3.74,-3.74l1.41,-1.42l2.26,2.26l4.8,-5.23l1.47,1.36l-6.2,6.77Z" style="fill:#e7e9ea;fill-rule:nonzero;"/></g></svg>