<?xml version="1.0" encoding="UTF-8" standalone="no"?><!DOCTYPE svg PUBLIC "-//W3C//DTD SVG 1.1//EN" "http://www.w3.org/Graphics/SVG/1.1/DTD/svg11.dtd"><svg width="100%" height="100%" transform="translate(0,0)" viewBox="0 0 24 24" version="1.1" xmlns="http://www.w3.org/2000/svg" xmlns:xlink="http://www.w3.org/1999/xlink" xml:space="preserve" xmlns:serif="http://www.serif.com/" style="fill-rule:evenodd;clip-rule:evenodd;stroke-linejoin:round;stroke-miterlimit:2;"><g><path d="M7,4l0,-1l2,0l0,1l6,0l0,-1l2,0l0,1l1.5,0c1.39,0 2.5,1.12 2.5,2.5l0,12c0,1.38 -1.11,2.5 -2.5,2.5l-13,0c-1.38,0 -2.5,-1.12 -2.5,-2.5l0,-12c0,-1.38 1.12,-2.5 2.5,-2.5l1.5,0Zm0,2l-1.5,0c-0.27,0 -0.5,0.22 -0.5,0.5l0,12c0,0.28 0.23,0.5 0.5,0.5l13,0c0.28,0 0.5,-0.22 0.5,-0.5l0,-12c0,-0.28 -0.22,-0.5 -0.5,-0.5l-1.5,0l0,1l-2,0l0,-1l-6,0l0,1l-2,0l0,-1Zm0,6l2,0l0,-2l-2,0l0,2Zm0,4l2,0l0,-2l-2,0l0,2Zm4,-4l2,0l0,-2l-2,0l0,2Zm0,4l2,0l0,-2l-2,0l0,2Zm4,-4l2,0l0,-2l-2,0l0,2Z" style="fill:#858585;fill-rule:nonzero;"/></g></svg>