<?xml version="1.0" encoding="UTF-8" standalone="no"?><!DOCTYPE svg PUBLIC "-//W3C//DTD SVG 1.1//EN" "http://www.w3.org/Graphics/SVG/1.1/DTD/svg11.dtd"><svg width="100%" height="100%" viewBox="0 0 24 17" version="1.1" xmlns="http://www.w3.org/2000/svg" xmlns:xlink="http://www.w3.org/1999/xlink" xml:space="preserve" xmlns:serif="http://www.serif.com/" style="fill-rule:evenodd;clip-rule:evenodd;stroke-linejoin:round;stroke-miterlimit:2;"><path d="M4.432,0l4.432,4.14l-1.364,1.46l-2.068,-1.93l0,8.45c0,1.1 0.896,2 2,2l5.5,0l0,2l-5.5,0c-2.209,0 -4,-1.79 -4,-4l-0,-8.45l-2.068,1.93l-1.364,-1.46l4.432,-4.14Zm12,2.12l-5.5,0l-0,-2l5.5,0c2.209,0 4,1.79 4,4l-0,8.45l2.068,-1.93l1.364,1.46l-4.432,4.14l-4.432,-4.14l1.364,-1.46l2.068,1.93l-0,-8.45c-0,-1.1 -0.896,-2 -2,-2Z" style="fill:#00ba7c;"/></svg>