<?xml version="1.0" encoding="UTF-8" standalone="no"?><!DOCTYPE svg PUBLIC "-//W3C//DTD SVG 1.1//EN" "http://www.w3.org/Graphics/SVG/1.1/DTD/svg11.dtd"><svg width="100%" height="100%" transform="translate(0,0)" viewBox="0 0 17 21" version="1.1" xmlns="http://www.w3.org/2000/svg" xmlns:xlink="http://www.w3.org/1999/xlink" xml:space="preserve" xmlns:serif="http://www.serif.com/" style="fill-rule:evenodd;clip-rule:evenodd;stroke-linejoin:round;stroke-miterlimit:2;"><path d="M8.5,5c-1.93,0 -3.5,1.57 -3.5,3.5c0,1.93 1.57,3.5 3.5,3.5c1.93,0 3.5,-1.57 3.5,-3.5c0,-1.93 -1.57,-3.5 -3.5,-3.5Zm0,5c-0.827,0 -1.5,-0.673 -1.5,-1.5c0,-0.827 0.673,-1.5 1.5,-1.5c0.827,0 1.5,0.673 1.5,1.5c0,0.827 -0.673,1.5 -1.5,1.5Zm0,-10c-4.687,0 -8.5,3.813 -8.5,8.5c0,5.967 7.621,11.116 7.945,11.332l0.555,0.37l0.555,-0.37c0.324,-0.216 7.945,-5.365 7.945,-11.332c0,-4.687 -3.813,-8.5 -8.5,-8.5Zm0,17.77c-1.665,-1.241 -6.5,-5.196 -6.5,-9.27c0,-3.584 2.916,-6.5 6.5,-6.5c3.584,0 6.5,2.916 6.5,6.5c0,4.073 -4.835,8.028 -6.5,9.27Z" style="fill:#858585;fill-rule:nonzero;"/></svg>