<?xml version="1.0" encoding="UTF-8" standalone="no"?><!DOCTYPE svg PUBLIC "-//W3C//DTD SVG 1.1//EN" "http://www.w3.org/Graphics/SVG/1.1/DTD/svg11.dtd"><svg width="100%" height="100%" viewBox="0 0 21 20" version="1.1" xmlns="http://www.w3.org/2000/svg" xmlns:xlink="http://www.w3.org/1999/xlink" xml:space="preserve" xmlns:serif="http://www.serif.com/" style="fill-rule:evenodd;clip-rule:evenodd;stroke-linejoin:round;stroke-miterlimit:2;"><g><path d="M0,8c0,-4.42 3.584,-8 8.005,-8l4.366,0c4.49,0 8.129,3.64 8.129,8.13c0,2.96 -1.607,5.68 -4.196,7.11l-8.054,4.46l-0,-3.69l-0.067,0c-4.49,0.1 -8.183,-3.51 -8.183,-8.01Zm8.005,-6c-3.317,-0 -6.005,2.69 -6.005,6c-0,3.37 2.77,6.08 6.138,6.01l0.351,-0.01l1.761,-0l-0,2.3l5.087,-2.81c1.951,-1.08 3.163,-3.13 3.163,-5.36c-0,-3.39 -2.744,-6.13 -6.129,-6.13l-4.366,-0Z" style="fill:#1d9bf0;"/></g></svg>