<?xml version="1.0" encoding="UTF-8" standalone="no"?><!DOCTYPE svg PUBLIC "-//W3C//DTD SVG 1.1//EN" "http://www.w3.org/Graphics/SVG/1.1/DTD/svg11.dtd"><svg width="100%" height="100%" viewBox="0 0 16 13" version="1.1" xmlns="http://www.w3.org/2000/svg" xmlns:xlink="http://www.w3.org/1999/xlink" xml:space="preserve" xmlns:serif="http://www.serif.com/" style="fill-rule:evenodd;clip-rule:evenodd;stroke-linejoin:round;stroke-miterlimit:2;"><path d="M10.822,9.41l-2.746,-4.368l-0,-2.38l4.917,8.195l-2.17,-1.447l-0.001,0Zm-6.031,0.965l5.398,0l1.752,1.168l-9.193,0l2.043,-1.168Zm2.131,-5.333l-2.734,4.348l-1.983,1.133l4.717,-7.861l-0,2.38Zm0.577,1.251l1.841,2.928l-3.682,-0l1.841,-2.928Zm7.42,5.53l-6.925,-11.543c-0.018,-0.03 -0.043,-0.054 -0.066,-0.08c-0.107,-0.126 -0.264,-0.199 -0.429,-0.2c-0.166,0.001 -0.323,0.074 -0.43,0.2c-0.022,0.026 -0.047,0.05 -0.064,0.08l-6.925,11.543c-0.027,0.045 -0.047,0.093 -0.061,0.143c-0.002,0.004 -0.002,0.007 -0.002,0.01c-0.019,0.078 -0.022,0.158 -0.008,0.237c0.009,0.068 0.031,0.133 0.064,0.193c0.01,0.017 0.023,0.029 0.034,0.044c0.02,0.026 0.037,0.055 0.06,0.077c0.021,0.022 0.047,0.038 0.071,0.057c0.017,0.011 0.031,0.025 0.048,0.035c0.027,0.016 0.056,0.025 0.085,0.036c0.018,0.007 0.035,0.016 0.054,0.022c0.043,0.011 0.087,0.016 0.132,0.017c0.006,-0 0.012,0.003 0.017,0.003l13.85,-0c0,0 0.001,0 0.002,0c0.316,0 0.576,-0.26 0.576,-0.576c-0,-0.105 -0.029,-0.208 -0.083,-0.298Z" style="fill:#1d9bf0;"/></svg>