<?xml version="1.0" encoding="UTF-8" standalone="no"?><!DOCTYPE svg PUBLIC "-//W3C//DTD SVG 1.1//EN" "http://www.w3.org/Graphics/SVG/1.1/DTD/svg11.dtd"><svg width="100%" height="100%" viewBox="0 0 21 18" version="1.1" xmlns="http://www.w3.org/2000/svg" xmlns:xlink="http://www.w3.org/1999/xlink" xml:space="preserve" xmlns:serif="http://www.serif.com/" style="fill-rule:evenodd;clip-rule:evenodd;stroke-linejoin:round;stroke-miterlimit:2;"><path d="M14.697,1.998c-1.222,-0.06 -2.679,0.51 -3.89,2.16l-0.805,1.09l-0.806,-1.09c-1.212,-1.65 -2.67,-2.22 -3.892,-2.16c-1.243,0.07 -2.349,0.78 -2.91,1.91c-0.552,1.12 -0.633,2.78 0.479,4.82c1.074,1.97 3.257,4.27 7.129,6.61c3.87,-2.34 6.052,-4.64 7.126,-6.61c1.111,-2.04 1.03,-3.7 0.477,-4.82c-0.561,-1.13 -1.666,-1.84 -2.908,-1.91Zm4.187,7.69c-1.351,2.48 -4.001,5.12 -8.379,7.67l-0.503,0.3l-0.504,-0.3c-4.379,-2.55 -7.029,-5.19 -8.382,-7.67c-1.36,-2.5 -1.41,-4.86 -0.514,-6.67c0.887,-1.79 2.647,-2.91 4.601,-3.01c1.651,-0.09 3.368,0.56 4.798,2.01c1.429,-1.45 3.146,-2.1 4.796,-2.01c1.954,0.1 3.714,1.22 4.601,3.01c0.896,1.81 0.846,4.17 -0.514,6.67Z" style="fill:#f91880;"/></svg>